<svg width="49" height="43" viewBox="0 0 49 43" fill="none" xmlns="http://www.w3.org/2000/svg">
<path d="M0.558615 0.755134C1.24767 0.0207355 2.53274 0.0220061 3.21929 0.760217C3.61411 1.1325 3.78512 1.69156 3.77506 2.22647C3.77506 6.00139 3.77003 9.77503 3.77757 13.5487C3.77757 14.3606 4.33335 15.1445 5.11671 15.3554C6.00067 15.6566 7.05689 15.1534 7.39262 14.2754C7.59254 13.8028 7.54225 13.278 7.54602 12.7774C7.54728 9.21724 7.5435 5.65579 7.54853 2.0956C7.51836 0.980028 8.6035 0.0321707 9.69115 0.220218C10.5537 0.321864 11.2679 1.09438 11.3094 1.97236C11.3384 2.96468 11.2981 3.95701 11.3296 4.94934C15.3495 1.39678 20.877 -0.267688 26.1707 0.314241C30.5276 0.689064 34.6884 2.68897 37.8482 5.72694C39.1559 2.82365 42.0015 0.670005 45.145 0.296453C45.8604 0.211323 46.6388 0.0753707 47.3052 0.429864C47.9427 0.775464 48.3199 1.50224 48.2872 2.22647C48.2835 14.8929 48.2897 27.5607 48.2835 40.2272C48.3136 41.3466 47.2209 42.3008 46.1295 42.1038C45.2242 41.9946 44.5037 41.1458 44.5163 40.2284C44.51 35.7788 44.515 31.3305 44.5138 26.8809C43.46 26.8517 42.39 26.975 41.3551 26.7272C38.9397 26.205 37.0485 23.9141 36.9769 21.4174C36.9555 17.7365 36.9819 14.0556 36.9643 10.3747C35.048 7.96444 32.5219 6.02299 29.6311 4.97475C26.5165 3.83377 23.0523 3.72322 19.8573 4.58722C16.4849 5.51221 13.4948 7.62901 11.3233 10.376C11.2943 11.6034 11.3572 12.8321 11.2881 14.0582C11.1259 16.2334 9.59182 18.2117 7.55608 18.9232C7.53219 26.0233 7.55608 33.1233 7.54351 40.2234C7.54602 40.9679 7.08707 41.6947 6.39801 41.9717C5.22108 42.5384 3.72476 41.5384 3.77632 40.2246C3.76249 33.1221 3.79141 26.0207 3.76249 18.9194C1.59723 18.1698 0.0254751 15.9844 0.0053566 13.6694C-0.00470264 9.85634 0.00535655 6.04459 0.000326925 2.23156C-0.00847492 1.69283 0.160018 1.12869 0.558615 0.755134ZM40.7466 9.5946C40.7365 13.4534 40.7403 17.3121 40.7453 21.1696C40.7403 22.0171 41.3514 22.8239 42.1762 23.0056C42.947 23.1391 43.7354 23.0387 44.5138 23.0692C44.5138 16.8242 44.515 10.5793 44.5138 4.33311C42.3498 5.098 40.7679 7.26943 40.7466 9.5946Z" fill="#212121"/>
<path d="M38.2834 30.7894C39.2717 30.4298 40.4687 31.0969 40.6812 32.14C40.8975 32.8833 40.5291 33.6304 40.04 34.1717C37.5239 37.4117 34.0937 39.9706 30.1844 41.198C26.7039 42.3047 22.9179 42.4203 19.3732 41.5474C16.6962 40.8651 14.1902 39.5691 12.0023 37.8754C11.1548 37.2147 11.0932 35.7968 11.8778 35.0624C12.504 34.3953 13.6168 34.3305 14.3361 34.8857C16.7063 36.6925 19.5317 37.9669 22.5092 38.2198C23.8433 38.3888 25.1925 38.31 26.5216 38.1359C30.4837 37.5921 34.1327 35.3902 36.6764 32.2988C37.163 31.7538 37.5277 30.9939 38.2834 30.7894Z" fill="#212121"/>
<path d="M22.9392 11.7205C24.7699 11.4727 26.6737 11.7903 28.3271 12.6226C30.0825 13.5006 31.5499 14.9427 32.469 16.691C33.4146 18.4711 33.7679 20.5676 33.4611 22.5636C33.2197 24.4289 32.3534 26.1874 31.1123 27.5799C29.5946 29.2596 27.4671 30.3905 25.2213 30.6217C22.9454 30.9012 20.5752 30.2939 18.7118 28.9445C17.2205 27.8938 16.0561 26.3881 15.3796 24.6855C14.5523 22.5764 14.4932 20.1597 15.2438 18.02C16.3642 14.6822 19.4662 12.1169 22.9392 11.7205ZM23.3164 15.5157C21.0518 15.8194 19.0902 17.6617 18.6288 19.9221C18.2666 21.4951 18.6212 23.2193 19.5731 24.5165C20.4407 25.7338 21.8025 26.5851 23.2736 26.8036C25.2377 27.1428 27.3363 26.3055 28.561 24.7224C29.5493 23.4861 29.9882 21.8153 29.7191 20.2486C29.499 18.776 28.6578 17.4152 27.4658 16.5449C26.2914 15.6656 24.7599 15.287 23.3164 15.5157Z" fill="#8773F2"/>
</svg>
