<svg width="48" height="49" viewBox="0 0 48 49" fill="none" xmlns="http://www.w3.org/2000/svg">
<path d="M7.99173 1.21974C9.24047 0.808496 10.5705 0.715997 11.8779 0.730997C17.4179 0.732247 22.9578 0.729747 28.4978 0.732247C30.4003 0.739747 32.3028 1.20974 33.9627 2.14848C37.5452 4.10722 39.9089 8.14343 39.7289 12.2371C39.6164 13.3034 38.4627 14.0846 37.4327 13.7921C36.6065 13.6196 36.0002 12.8184 36.004 11.9821C35.989 10.3409 35.459 8.70342 34.4402 7.40843C33.5015 6.16595 32.1515 5.25845 30.669 4.79471C29.7628 4.53846 28.8153 4.45221 27.8753 4.48096C22.2991 4.48471 16.7242 4.47471 11.1492 4.48596C8.88798 4.49846 6.66925 5.6122 5.30676 7.41468C4.29427 8.70842 3.75427 10.3434 3.75052 11.9834C3.75052 20.4821 3.75052 28.9807 3.75177 37.4794C3.75302 39.1456 4.31427 40.8056 5.35551 42.1094C6.72175 43.8756 8.91548 44.9581 11.148 44.9756C14.1029 44.9943 17.0579 44.9643 20.0116 44.9906C21.1016 45.0318 21.9604 46.1643 21.7079 47.2243C21.5604 48.0831 20.7441 48.7356 19.8791 48.7281C17.2091 48.7343 14.5404 48.728 11.8704 48.7305C10.663 48.7443 9.43672 48.6618 8.27423 48.3243C5.44676 47.5656 2.96678 45.6343 1.50929 43.1006C0.515554 41.4056 0.0118085 39.4456 0.00180861 37.4844C-0.000691369 29.027 0.000558591 20.5696 0.000558591 12.1134C-0.00694134 11.4434 0.0618081 10.7772 0.163057 10.1159C0.796801 5.9847 3.98302 2.38598 7.99173 1.21974Z" fill="#212121"/>
<path d="M35.5589 17.6903C37.2139 17.4491 38.9476 17.7541 40.4188 18.5528C42.2438 19.5216 43.6538 21.2341 44.2651 23.2078C44.665 24.499 44.7238 25.8928 44.4488 27.2178C44.0551 29.1715 42.8663 30.944 41.2388 32.089C40.1251 32.8827 38.8014 33.3577 37.4476 33.5165C35.3989 33.7102 33.2852 33.0877 31.6839 31.7927C30.3252 30.7065 29.3177 29.1665 28.9227 27.469C28.3365 25.2703 28.8314 22.839 30.1414 20.9916C31.3914 19.2116 33.3952 17.9603 35.5589 17.6903ZM35.4876 21.5253C33.3639 22.0853 31.9614 24.4915 32.5664 26.6128C32.9139 27.964 33.9589 29.124 35.2926 29.5552C36.0526 29.8515 36.9076 29.8577 37.6939 29.6677C38.7589 29.3827 39.7088 28.689 40.2713 27.7378C41.0526 26.4603 41.0663 24.7515 40.3026 23.464C39.7738 22.5303 38.8664 21.8353 37.8464 21.5203C37.0739 21.3203 36.2576 21.3016 35.4876 21.5253Z" fill="#212121"/>
<path d="M13.4217 20.1653C13.6104 20.1265 13.8029 20.1265 13.9954 20.124C16.9591 20.129 19.9228 20.1253 22.8866 20.1265C23.7153 20.099 24.5316 20.6565 24.7616 21.4615C25.0878 22.3865 24.5003 23.4827 23.5828 23.7852C23.1903 23.8977 22.7791 23.879 22.3753 23.8765C19.5004 23.874 16.6241 23.8802 13.7492 23.874C12.9404 23.8952 12.2029 23.3002 11.9804 22.5365C11.6404 21.5203 12.3792 20.3515 13.4217 20.1653Z" fill="#212121"/>
<path d="M13.648 27.2588C16.7217 27.2401 19.7967 27.2563 22.8717 27.2513C23.7042 27.2176 24.5291 27.7738 24.7604 28.5851C25.0891 29.5113 24.4991 30.6088 23.5804 30.9113C23.1879 31.0225 22.7767 31.0038 22.3742 31.0013C19.4979 30.9988 16.6217 31.005 13.7467 30.9988C12.938 31.0188 12.2018 30.4238 11.9793 29.66C11.6105 28.5638 12.5043 27.3151 13.648 27.2588Z" fill="#212121"/>
<path d="M13.3044 34.549C13.5306 34.4828 13.7681 34.4803 14.0006 34.479C17.0018 34.4853 20.0043 34.474 23.0055 34.484C23.868 34.4853 24.6455 35.1402 24.813 35.9827C25.0018 36.8415 24.4818 37.8065 23.6468 38.0965C23.2043 38.274 22.7205 38.2252 22.2555 38.2302C19.4606 38.2302 16.6656 38.2302 13.8706 38.2302C13.0994 38.2565 12.3181 37.7977 12.0494 37.0602C11.5844 36.074 12.2431 34.7778 13.3044 34.549Z" fill="#212121"/>
<path d="M5.30672 7.41505C6.66921 5.61257 8.88794 4.49883 11.1492 4.48633C10.7004 4.96132 10.1592 5.34382 9.76168 5.86881C8.31045 7.5513 7.49295 9.75253 7.50295 11.9763C7.4992 20.4787 7.49795 28.9824 7.50295 37.486C7.4942 39.6785 8.2817 41.8522 9.70293 43.5235C10.1129 44.0785 10.6792 44.4785 11.1479 44.9759C8.91544 44.9584 6.72171 43.876 5.35547 42.1097C4.31423 40.806 3.75299 39.146 3.75174 37.4798C3.75049 28.9811 3.75049 20.4824 3.75049 11.9838C3.75424 10.3438 4.29423 8.70879 5.30672 7.41505Z" fill="#DEDEDE"/>
<path d="M35.4878 21.5262C36.2578 21.3024 37.074 21.3212 37.8465 21.5212C37.3228 21.8674 37.029 22.4412 36.7615 22.9887C36.094 24.4149 35.994 26.0987 36.529 27.5836C36.7703 28.3524 37.2628 28.9999 37.694 29.6686C36.9078 29.8586 36.0528 29.8524 35.2928 29.5561C33.959 29.1249 32.914 27.9649 32.5665 26.6136C31.9616 24.4924 33.364 22.0862 35.4878 21.5262Z" fill="#DEDEDE"/>
<path d="M13.1603 13.0157C13.3853 12.9157 13.6366 12.922 13.8791 12.917C18.169 12.9207 22.459 12.9157 26.7489 12.9182C27.5389 12.9032 28.2789 13.4882 28.5089 14.2357C28.8064 15.067 28.3652 16.0557 27.5889 16.4507C27.2289 16.6845 26.7902 16.6757 26.3777 16.6707C22.1677 16.6657 17.9578 16.672 13.7478 16.667C12.7328 16.687 11.8503 15.7257 11.8978 14.722C11.9316 13.9657 12.4528 13.2757 13.1603 13.0157Z" fill="#8773F2"/>
<path d="M34.6828 36.4428C35.7428 36.3053 36.8141 36.3628 37.8803 36.3641C40.7478 36.4328 43.5428 37.7765 45.4115 39.9478C46.7965 41.539 47.7077 43.5515 47.9215 45.654C48.0077 46.4527 48.1427 47.3864 47.5702 48.0464C46.9165 48.8877 45.524 48.9552 44.7978 48.1739C44.3678 47.7764 44.234 47.1702 44.2403 46.6052C44.1878 44.8915 43.4503 43.214 42.2165 42.024C41.0428 40.849 39.4153 40.1628 37.7591 40.1115C36.3278 40.1028 34.8303 40.0015 33.4841 40.584C31.0141 41.5428 29.2641 44.0752 29.2554 46.7277C29.2929 47.5714 28.7479 48.4277 27.9117 48.6439C26.9329 48.9752 25.7692 48.3164 25.5604 47.3027C25.4104 46.4902 25.5854 45.6627 25.6904 44.8552C26.1492 42.4352 27.5029 40.1978 29.4279 38.6603C30.9279 37.4565 32.7654 36.6503 34.6828 36.4428Z" fill="#8773F2"/>
</svg>
