<svg width="50" height="46" viewBox="0 0 50 46" fill="none" xmlns="http://www.w3.org/2000/svg">
<path d="M3.9392 0.886368C4.72148 0.523473 5.5911 0.357145 6.45186 0.358406C18.862 0.363446 31.2708 0.354625 43.6797 0.362186C46.1569 0.384867 48.4708 2.20942 49.0519 4.60731C49.3417 5.68843 49.2126 6.81492 49.2405 7.91999C49.2101 8.98977 49.3405 10.0785 49.0759 11.1281C48.6012 13.2299 46.8012 14.9649 44.6721 15.3581C44.1215 15.4979 43.5405 15.4286 42.9924 15.571C42.2063 15.784 41.6506 16.5577 41.6493 17.359C41.6291 18.667 41.6658 19.9762 41.6367 21.2841C41.5974 22.2934 40.6265 23.1238 39.6202 23.0368C38.6557 22.9915 37.8316 22.1233 37.8506 21.1594C37.8531 19.7658 37.8303 18.3721 37.8632 16.9798C38 14.5025 39.9607 12.2647 42.4164 11.8211C43.0835 11.646 43.8189 11.8047 44.443 11.4696C45.0924 11.1382 45.4683 10.4086 45.443 9.69288C45.4354 8.42653 45.4607 7.16017 45.4316 5.89508C45.386 4.93618 44.5151 4.13353 43.5557 4.14361C40.5139 4.13605 37.4721 4.13983 34.4316 4.14109C33.9848 5.15543 33.6265 6.21513 33.0443 7.16521C32.0873 8.7491 30.6455 10.0344 28.9595 10.8093C26.8898 11.7909 24.4582 11.9433 22.262 11.3184C20.1367 10.7009 18.2405 9.32243 17.0278 7.47519C16.3291 6.45202 15.9367 5.26757 15.443 4.14109C13.2025 4.13731 10.962 4.14235 8.72021 4.13857C7.84173 4.15873 6.95945 4.0995 6.08224 4.16629C5.16072 4.25701 4.42654 5.10503 4.4354 6.01983C4.42528 7.28618 4.42528 8.55379 4.4354 9.81889C4.42401 10.7753 5.23034 11.6548 6.19996 11.68C7.19743 11.6951 8.18477 11.9345 9.07464 12.3831C10.6962 13.3067 11.8683 15.0141 11.9974 16.8865C12.0607 18.2234 12.0063 19.5641 12.0278 20.9023C12.0544 21.4744 11.8987 22.083 11.467 22.4849C10.8151 23.1692 9.63161 23.2233 8.91642 22.6059C8.4835 22.2569 8.23414 21.7125 8.23034 21.1606C8.21768 19.893 8.2392 18.6267 8.22401 17.359C8.21642 16.6849 7.83414 16.0221 7.22781 15.7109C6.59996 15.3745 5.85945 15.5332 5.18857 15.3581C2.77464 14.9082 0.832872 12.7359 0.656922 10.2977C0.603758 8.83227 0.644264 7.36304 0.635403 5.89634C0.667049 3.77945 2.00249 1.75959 3.9392 0.886368ZM19.5696 4.14487C20.0822 5.59771 21.2139 6.82122 22.6354 7.43361C24.1101 8.08757 25.8633 8.06867 27.3278 7.39454C28.7076 6.77082 29.8 5.56621 30.3038 4.14487C26.7265 4.13605 23.1481 4.13605 19.5696 4.14487Z" fill="#212121"/>
<path d="M9.66198 34.4416C10.6734 34.1506 11.8227 34.8763 11.986 35.9121C12.1265 37.0184 11.8683 38.1638 12.1924 39.25C12.6367 40.8087 14.1848 41.9541 15.8126 41.9377C21.8949 41.944 27.9772 41.944 34.0595 41.9377C35.6835 41.9553 37.2227 40.8162 37.6772 39.2676C38.0025 38.1752 37.7493 37.0247 37.8873 35.9121C38.0455 34.9141 39.1189 34.1972 40.1063 34.4177C40.9316 34.5588 41.5962 35.3048 41.6367 36.1377C41.6493 37.6787 41.7582 39.2777 41.1873 40.7457C40.4557 42.763 38.8253 44.4288 36.8139 45.2012C35.824 45.612 34.7367 45.7355 33.6708 45.7229C27.6759 45.7178 21.6822 45.7267 15.6886 45.7191C12.6772 45.7065 9.80502 43.7081 8.74806 40.9044C8.11262 39.3974 8.22021 37.7341 8.23667 36.1389C8.27591 35.3438 8.88224 34.6193 9.66198 34.4416Z" fill="#212121"/>
<path d="M4.43533 6.01966C4.42647 5.10486 5.16065 4.25685 6.08216 4.16612C6.95938 4.09934 7.84166 4.15856 8.72014 4.1384C8.44039 4.72937 8.22647 5.36318 8.229 6.02344C8.21887 7.15875 8.23659 8.29532 8.22267 9.43189C8.21128 10.1186 8.29356 10.8268 8.61634 11.4442C8.77963 11.7516 8.95305 12.0553 9.07457 12.3829C8.1847 11.9344 7.19735 11.6949 6.19989 11.6798C5.23027 11.6546 4.42394 10.7751 4.43533 9.81873C4.4252 8.55363 4.4252 7.28602 4.43533 6.01966Z" fill="#DEDEDE"/>
<path d="M1.71907 23.2285C2.70768 22.7194 4.06211 23.3015 4.34186 24.3814C4.5254 25.1778 4.38616 26.0069 4.43426 26.8171C18.1026 26.8234 31.771 26.8234 45.4393 26.8171C45.5039 25.9502 45.3014 25.0429 45.595 24.2075C45.9684 23.1944 47.3064 22.7345 48.2393 23.27C48.8988 23.5926 49.2634 24.3348 49.2419 25.0492C49.2406 27.49 49.2406 29.9319 49.2406 32.3727C49.271 33.1526 48.8203 33.9515 48.0697 34.23C47.0887 34.676 45.8052 34.0851 45.5317 33.0405C45.3469 32.2429 45.4874 31.415 45.4393 30.6048C41.771 30.5985 38.1026 30.5985 34.4355 30.6048C34.3431 31.6066 34.6811 32.7444 34.0507 33.6252C33.371 34.5853 31.7938 34.6219 31.0684 33.697C30.3646 32.82 30.7216 31.6318 30.6292 30.6061C26.8343 30.5973 23.0393 30.5985 19.2444 30.6048C19.1532 31.6066 19.4912 32.7444 18.8608 33.6252C18.1811 34.5853 16.6039 34.6219 15.8786 33.6957C15.1748 32.8187 15.5317 31.6305 15.4393 30.6048C11.771 30.5985 8.10262 30.5985 4.43426 30.6048C4.39376 31.3848 4.50515 32.1761 4.36591 32.9485C4.14692 34.0057 2.89249 34.6634 1.88996 34.2627C1.09629 34.0095 0.596288 33.1854 0.632996 32.3727C0.632996 29.9319 0.632996 27.49 0.632996 25.0492C0.606414 24.302 1.01274 23.5296 1.71907 23.2285Z" fill="#8773F2"/>
</svg>
