<svg width="58" height="57" viewBox="0 0 58 57" fill="none" xmlns="http://www.w3.org/2000/svg">
<path d="M44.1444 0.402411C46.6797 0.0920297 49.3248 0.619969 51.5116 1.93837C54.5243 3.71508 56.6583 6.91898 57.0245 10.3825C57.3848 13.1687 56.6715 16.081 55.0223 18.3712C53.0216 21.2212 49.6485 23.098 46.1392 23.2314C44.0067 23.3779 41.9386 22.6919 39.9775 21.9377C39.5044 21.7984 38.9522 21.7926 38.5231 22.0624C37.8332 22.4308 37.2986 23.1299 36.4784 23.2213C35.4517 23.4142 34.3591 22.7571 34.0574 21.7709C33.9285 21.301 33.9504 20.8122 33.9534 20.3307C33.9563 17.3806 33.9504 14.4291 33.9563 11.479C33.9915 9.25554 34.734 7.05676 36.0229 5.23798C37.8786 2.59249 40.8973 0.741801 44.1444 0.402411ZM44.0902 4.81592C40.9485 5.39317 38.4132 8.30409 38.3576 11.479C38.3415 13.4994 38.3502 15.5212 38.3532 17.5416C39.6963 17.382 41.0774 17.5677 42.2901 18.1739C43.434 18.741 44.7258 18.9774 45.9986 18.8759C48.222 18.7744 50.3193 17.5053 51.5379 15.6793C52.5339 14.2086 52.9279 12.3507 52.6174 10.6087C52.3435 8.70585 51.1879 6.97264 49.5958 5.89066C48.0111 4.81157 45.9708 4.42287 44.0902 4.81592Z" fill="#8773F2"/>
<path d="M20.9795 27.6319C22.2333 27.5884 23.5119 27.5217 24.7437 27.8088C27.2804 28.302 29.5257 30.0062 30.7268 32.2644C31.3932 33.4943 31.7315 34.891 31.7564 36.2834C31.7696 37.3219 30.9494 38.3415 29.8875 38.4532C29.0615 38.5953 28.1739 38.2269 27.7228 37.522C27.3786 37.084 27.3815 36.5082 27.339 35.9832C27.2116 34.2674 25.9696 32.6908 24.3014 32.1919C23.4109 31.8728 22.4515 31.9555 21.5229 31.9613C19.8664 32.0222 18.2817 33.0563 17.624 34.572C17.3135 35.1434 17.3018 35.8033 17.2476 36.4343C17.1949 37.4191 16.3952 38.3444 15.389 38.4532C14.5292 38.6011 13.6109 38.1936 13.17 37.4437C12.6794 36.662 12.9005 35.6975 12.9738 34.8374C13.3634 32.6241 14.6537 30.5762 16.505 29.2737C17.8056 28.3252 19.3772 27.7827 20.9795 27.6319Z" fill="#8773F2"/>
<path d="M12.4158 3.46834C13.3941 3.3233 14.3857 3.35811 15.3714 3.35521C19.8181 3.35521 24.2662 3.35521 28.7129 3.35521C29.4994 3.34071 30.302 3.74247 30.677 4.443C31.2365 5.30308 30.9992 6.5214 30.2215 7.17262C29.8143 7.53666 29.2577 7.70201 28.7158 7.70636C23.8854 7.70636 19.055 7.70636 14.2246 7.70636C12.2532 7.6846 10.27 8.30101 8.71459 9.51208C6.60257 11.0843 5.31076 13.65 5.27707 16.2636C5.26828 22.2624 5.27414 28.2612 5.27414 34.2599C5.28439 36.2223 5.96106 38.1774 7.21919 39.6989C8.88156 41.7816 11.5487 42.9999 14.2246 42.9492C24.1285 42.9506 34.0339 42.9506 43.9379 42.9492C45.7174 42.939 47.4926 42.4096 48.947 41.3886C51.2055 39.8671 52.6379 37.2434 52.7184 34.5428C52.7477 31.7334 52.7038 28.9225 52.7404 26.1132C52.8048 24.7541 54.3706 23.736 55.6492 24.2567C56.5104 24.5293 57.108 25.3793 57.1168 26.2669C57.1256 28.9298 57.1197 31.5927 57.1197 34.2541C57.105 36.2818 56.6481 38.3109 55.7078 40.1166C54.2812 42.9303 51.7942 45.2002 48.8386 46.3634C47.1528 47.0567 45.3132 47.3235 43.4956 47.3018C33.9783 47.3018 24.4625 47.3018 14.9467 47.3018C13.3648 47.3235 11.7523 47.2307 10.2408 46.7303C5.55096 45.3844 1.82783 41.2218 1.07353 36.4413C0.960756 35.7176 0.875806 34.9895 0.878736 34.257C0.878736 28.3105 0.878736 22.3639 0.878736 16.4174C0.888988 14.3433 1.36939 12.2664 2.34778 10.4273C4.28404 6.66643 8.16975 3.93827 12.4158 3.46834Z" fill="#212121"/>
<path d="M21.87 11.5469C23.717 11.3366 25.6356 11.9226 27.0564 13.1076C28.7158 14.4593 29.6664 16.6088 29.5492 18.7321C29.4496 20.1608 28.9223 21.5618 28.004 22.6728C26.6419 24.3654 24.4302 25.3357 22.2494 25.2197C20.9136 25.1225 19.5925 24.6787 18.5219 23.8708C16.7892 22.6293 15.7302 20.5524 15.6966 18.4406C15.679 16.3767 16.65 14.3302 18.2802 13.0423C19.3025 12.2141 20.5621 11.7036 21.87 11.5469ZM22.0414 15.9314C21.2095 16.136 20.4947 16.7654 20.237 17.5805C19.7683 18.7873 20.5035 20.2666 21.7236 20.6931C22.5584 21.0614 23.5749 20.8453 24.2589 20.2695C25.0542 19.6096 25.4057 18.4247 24.9766 17.4689C24.5679 16.3303 23.2219 15.6153 22.0414 15.9314Z" fill="#212121"/>
<path d="M18.1821 51.6732C25.2548 51.6254 32.3305 51.6689 39.4048 51.6515C40.3993 51.5964 41.407 52.2548 41.6486 53.2295C41.9884 54.2738 41.3601 55.5182 40.3055 55.8619C39.8295 56.0447 39.3125 56.0026 38.8131 56.0041C32.0259 56.0026 25.2373 56.007 18.4501 56.0026C17.4468 56.0113 16.4948 55.2687 16.3117 54.2839C16.01 53.0888 16.94 51.7835 18.1821 51.6732Z" fill="#212121"/>
<path d="M8.71458 9.51234C10.27 8.30127 12.2532 7.68486 14.2246 7.70661C11.6322 9.70669 9.9361 12.8395 9.89216 16.113C9.8863 22.0596 9.89216 28.0076 9.88777 33.9542C9.82186 36.092 10.4224 38.2473 11.5765 40.053C12.2678 41.1756 13.2125 42.1097 14.2246 42.9494C11.5487 43.0002 8.88155 41.7819 7.21918 39.6991C5.96105 38.1777 5.28438 36.2226 5.27413 34.2602C5.27413 28.2614 5.26827 22.2626 5.27706 16.2639C5.31075 13.6503 6.60256 11.0845 8.71458 9.51234Z" fill="#DEDEDE"/>
</svg>
