<svg width="49" height="50" viewBox="0 0 49 50" fill="none" xmlns="http://www.w3.org/2000/svg">
<path d="M10.0272 0.818367C10.5104 0.753706 10.9973 0.730884 11.4855 0.730884C19.8904 0.730884 28.2966 0.730884 36.7028 0.730884C37.7738 0.71567 38.851 0.824707 39.8917 1.08082C42.4373 1.73123 44.7369 3.30339 46.2721 5.44736C47.6823 7.37199 48.4342 9.75179 48.4392 12.1392C48.4417 20.5084 48.4405 28.8776 48.4405 37.2468C48.4594 38.6111 48.3736 39.9994 47.9485 41.304C46.9015 44.9022 43.9485 47.8716 40.3685 48.9252C39.1096 49.3347 37.7725 49.4336 36.4568 49.4171C28.1326 49.4171 19.8097 49.4171 11.4867 49.4171C9.68035 49.4209 7.8664 49.0279 6.25555 48.1962C3.86513 46.9904 1.92252 44.9111 0.89319 42.4299C0.239767 40.9249 -0.0213503 39.2716 0.00135549 37.6361C0.00513979 29.0551 -0.0049517 20.4754 0.00640122 11.8945C0.0543357 8.43954 1.78629 5.07207 4.54757 3.01686C6.13824 1.81618 8.04679 1.02883 10.0272 0.818367ZM5.14296 7.8056C4.25365 9.06206 3.79701 10.5975 3.78692 12.1341C3.7844 20.5895 3.78692 29.045 3.78566 37.5017C3.76043 38.4209 3.86135 39.349 4.11363 40.2339C4.61064 41.8124 5.60717 43.2388 6.96195 44.191C8.20447 45.1026 9.73207 45.5869 11.266 45.6097C19.8753 45.6186 28.4846 45.6122 37.0951 45.6122C39.4956 45.6186 41.8633 44.404 43.2408 42.4223C44.1655 41.1493 44.6448 39.5797 44.6549 38.0076C44.6574 29.4279 44.6549 20.8482 44.6562 12.2672C44.7028 9.81011 43.4906 7.36692 41.4836 5.95705C40.1818 4.99854 38.5672 4.52309 36.9601 4.5345C28.3975 4.5383 19.8336 4.52942 11.271 4.5383C8.86041 4.54718 6.50027 5.80364 5.14296 7.8056Z" fill="#212121"/>
<path d="M5.14298 7.80576C6.50029 5.80379 8.86043 4.54733 11.271 4.53845C10.0777 5.58191 9.00802 6.80921 8.38109 8.28374C7.69487 9.76335 7.52205 11.4192 7.56746 13.0345C7.60404 14.5318 7.50187 16.033 7.62549 17.5265C7.57251 17.8663 7.57251 18.2099 7.62423 18.5497C7.60783 18.8236 7.57125 19.0949 7.5662 19.37C7.57377 25.5826 7.56746 31.7951 7.57125 38.0077C7.57503 39.9869 8.19187 41.9597 9.35492 43.561C9.88472 44.3395 10.5962 44.9594 11.266 45.6099C9.73209 45.587 8.20449 45.1027 6.96197 44.1911C5.60719 43.2389 4.61066 41.8126 4.11365 40.2341C3.86137 39.3491 3.76045 38.421 3.78568 37.5018C3.78694 29.0451 3.78442 20.5897 3.78694 12.1343C3.79703 10.5976 4.25367 9.06222 5.14298 7.80576Z" fill="#DEDEDE"/>
<path d="M27.0453 8.40914C28.0822 8.08583 29.3008 8.87825 29.3928 9.97369C29.4988 10.5785 29.2478 11.163 28.8857 11.6308C27.864 13.1446 26.8536 14.6661 25.8343 16.1799C25.5808 16.5615 25.2137 16.8861 24.7609 16.9977C23.8451 17.3058 22.7363 16.7568 22.4461 15.8249C22.2178 15.2354 22.3439 14.5545 22.7009 14.0436C23.8047 12.4055 24.8984 10.7598 26.0021 9.12041C26.2481 8.76414 26.6265 8.51183 27.0453 8.40914Z" fill="#8773F2"/>
<path d="M7.62547 17.5261C7.86009 16.735 8.622 16.1099 9.45833 16.1353C10.9304 16.1328 12.4025 16.1366 13.8759 16.134C15.5485 16.0681 17.2237 16.8174 18.3174 18.0865C19.1134 19.0311 20.1074 19.8223 21.2502 20.2977C22.8169 20.9684 24.5993 21.0356 26.2442 20.6324C27.7365 20.2242 29.0762 19.3291 30.0714 18.1449C31.1399 16.877 32.7797 16.1023 34.4373 16.134C35.9522 16.1366 37.4672 16.1328 38.9822 16.1353C39.9169 16.1074 40.7785 16.8947 40.8567 17.8292C41.0005 18.8663 40.1415 19.9034 39.1008 19.9351C37.4622 19.9541 35.8236 19.9199 34.1862 19.9503C33.2111 20.015 32.7293 20.9697 32.0632 21.5453C29.6476 23.9111 26.1395 25.051 22.8018 24.5971C20.0998 24.3067 17.563 22.9235 15.7529 20.9025C15.3492 20.4017 14.803 19.9313 14.1256 19.9427C12.5287 19.93 10.9329 19.949 9.33723 19.9351C8.54505 19.9059 7.85379 19.2974 7.6242 18.5493C7.57249 18.2095 7.57249 17.8659 7.62547 17.5261Z" fill="#8773F2"/>
</svg>
