<svg width="51" height="51" viewBox="0 0 51 51" fill="none" xmlns="http://www.w3.org/2000/svg">
<g opacity="0.6">
<path d="M5.83776 1.48577C6.12978 1.41414 6.43035 1.37259 6.73234 1.35683C10.6768 1.29666 14.6227 1.36256 18.5685 1.34394C22.513 1.29236 26.4574 1.39838 30.4004 1.31958C35.2452 1.39408 40.0899 1.2852 44.9346 1.35826C46.6113 1.42703 48.2181 2.41414 49.0486 3.87832C49.5172 4.66199 49.7494 5.57316 49.7509 6.48577C49.7993 11.3583 49.7152 16.2308 49.7793 21.1032C49.7295 24.2565 49.7494 27.4113 49.7793 30.5631C49.7067 35.2508 49.8135 39.9385 49.7409 44.6247C49.664 46.5517 48.3776 48.3454 46.607 49.0717C45.4503 49.5946 44.1554 49.4399 42.9246 49.4628C38.936 49.5158 34.946 49.4113 30.9574 49.4886C28.4902 49.4514 26.0215 49.4643 23.5529 49.4628C19.6611 49.5173 15.7665 49.4098 11.8748 49.4886C10.2566 49.4772 8.63833 49.4514 7.02009 49.46C5.67536 49.4729 4.352 48.9055 3.39901 47.9585C2.53291 47.0703 1.97308 45.8697 1.9218 44.6204C1.86055 40.6505 1.93035 36.682 1.90613 32.7107C1.8634 28.7451 1.95742 24.7766 1.88477 20.811C1.95884 15.9428 1.85343 11.0732 1.9218 6.20497C1.9916 3.9872 3.69103 1.96428 5.83776 1.48577ZM5.33491 6.48147C5.3634 7.63477 5.27223 8.78949 5.33633 9.94136C7.60414 9.93133 9.87337 9.96714 12.1412 9.91557C12.1839 8.2064 12.1654 6.4958 12.164 4.78663C10.4489 4.71643 8.73234 4.80669 7.01724 4.79093C6.11269 4.74795 5.29217 5.57173 5.33491 6.48147ZM15.5614 4.78806C15.6298 6.49723 15.5529 8.2064 15.5643 9.91557C18.419 9.99293 21.2765 9.89694 24.1298 9.92273C24.0628 8.20497 24.1697 6.48577 24.1098 4.768C21.2608 4.74365 18.4104 4.78663 15.5614 4.78806ZM27.5571 4.78949C27.5144 6.5001 27.5315 8.2107 27.5372 9.9213C28.3947 9.95998 29.2551 9.91843 30.1141 9.94136C32.1084 9.8554 34.1056 10.0087 36.0999 9.91414C36.1184 8.2064 36.0657 6.49866 36.0771 4.78949C33.238 4.74651 30.3962 4.74795 27.5571 4.78949ZM39.4973 4.79093C39.513 6.50869 39.4645 8.22932 39.5244 9.94565C41.7979 9.86113 44.0728 10.0001 46.3463 9.92273C46.3563 8.77517 46.3705 7.6276 46.3406 6.48147C46.3534 5.56457 45.5443 4.76371 44.6369 4.77517C42.9246 4.76227 41.2081 4.73935 39.4973 4.79093ZM5.33633 13.3597C5.24801 14.9815 5.38477 16.6061 5.31924 18.2308C5.27081 21.8611 5.3634 25.4929 5.30927 29.1233C5.30072 31.8984 5.31212 34.6734 5.33918 37.4485C10.6996 37.4457 16.06 37.4328 21.4218 37.4499C24.4104 37.3969 27.399 37.4772 30.3876 37.4485C34.1412 37.4012 37.8962 37.4843 41.6511 37.4385C43.2195 37.3898 44.7865 37.4786 46.3548 37.4242C46.3064 33.0832 46.4033 28.7436 46.3278 24.4027C46.3833 20.7222 46.3477 17.0402 46.3292 13.3597C42.3919 13.3382 38.4546 13.3998 34.5172 13.3597C31.6241 13.3339 28.7295 13.4127 25.8363 13.3583C22.5586 13.3339 19.2822 13.4084 16.0058 13.3597C12.4489 13.3454 8.89189 13.3984 5.33633 13.3597ZM5.33491 40.8669C5.28505 41.6777 5.31924 42.4901 5.30784 43.3024C5.31639 43.8783 5.25799 44.4757 5.46739 45.0244C5.76368 45.6734 6.45599 46.0603 7.15542 46.0402C8.81639 46.0517 10.4774 46.0402 12.1383 46.0445C12.1953 44.3267 12.1554 42.6075 12.1682 40.8898C9.89046 40.9012 7.61269 40.8482 5.33491 40.8669ZM15.5956 40.8669C15.5144 42.5832 15.607 44.301 15.587 46.0173C18.4261 46.0603 21.268 46.0631 24.1056 46.0173C24.1454 44.301 24.1526 42.5818 24.107 40.8669C21.2694 40.8898 18.4332 40.8769 15.5956 40.8669ZM27.55 40.8726C27.5586 42.5889 27.54 44.3053 27.5358 46.023C30.3905 46.0904 33.2466 46.0058 36.1013 46.0244C36.0229 44.3124 36.1312 42.5989 36.0913 40.8869C33.2452 40.8153 30.3962 40.9242 27.55 40.8726ZM39.5215 40.8912C39.503 42.609 39.4645 44.3282 39.5229 46.0459C41.2309 46.0603 42.9375 46.023 44.6454 46.0173C44.8848 46.0187 45.1155 45.9571 45.3449 45.8955C46.0472 45.5631 46.4218 44.7838 46.3321 44.0216C46.3107 42.9786 46.3734 41.9356 46.3548 40.8926C44.0785 40.8382 41.7993 40.864 39.5215 40.8912Z" fill="white"/>
<path d="M19.9916 16.9484C20.4503 16.7894 20.9545 16.7779 21.4118 16.9542C25.9887 19.2693 30.5799 21.5559 35.1539 23.8768C35.9844 24.2536 36.2708 25.3037 35.9502 26.1189C35.728 26.5702 35.3249 26.8811 34.8747 27.0817C30.389 29.3424 25.8933 31.5874 21.4075 33.8496C20.5685 34.2206 19.5243 33.8352 19.1297 33.0014C18.9332 32.4011 18.9716 31.7636 18.9973 31.1418C19.0201 26.8854 18.9602 22.6275 19.0158 18.3711C19.0414 17.7536 19.4574 17.2235 19.9916 16.9484ZM22.4574 21.2822C22.4189 21.6017 22.3933 21.9241 22.4004 22.2464C22.4161 24.2536 22.3776 26.2593 22.4289 28.265C22.446 28.6848 22.3705 29.1189 22.5044 29.5258C23.3135 28.9599 24.2565 28.6117 25.1255 28.1447C25.691 27.8496 26.2622 27.5616 26.8363 27.2851C28.0628 26.6418 29.3149 26.0516 30.54 25.4054C27.983 24.0974 25.4089 22.8195 22.8463 21.5215C22.7124 21.447 22.5856 21.3639 22.4574 21.2822Z" fill="white"/>
</g>
</svg>
