<svg width="512" height="512" viewBox="0 0 512 512" fill="none" xmlns="http://www.w3.org/2000/svg">
<path d="M287.34 77.07C295.94 58.18 304.49 39.27 313.14 20.4C320.39 44.51 324.2 69.49 327.41 94.41C333 137.44 331.28 181.39 322.42 223.87C315.3 257.61 304.12 290.8 286.61 320.64C275.62 338.81 262.73 355.87 247.95 371.13C262.29 344.46 275.95 317.22 285.14 288.28C294.01 261.31 299.57 233.3 302.59 205.09C305.4 172.69 304.12 139.67 296.24 108.02C293.86 97.54 290.71 87.26 287.34 77.07Z" fill="#FF5757"/>
<path d="M173.16 97.42C193.31 91.67 214.91 92.48 235.04 97.86C250.95 102.22 266.25 110.25 277.29 122.73C286 132.48 291.56 144.97 292.94 157.98C294.25 169.67 292.53 181.54 288.92 192.69C285.24 203.82 278.94 213.82 272.71 223.68C261.08 242.18 249.99 261.08 240.95 281C234.24 295.94 227.72 311.45 226.73 328C226.03 338.31 228.3 348.76 233.1 357.9C237.04 365.3 243.09 371.22 248.87 377.17C237.81 379.28 226.65 381 215.38 381.4C213.42 371.37 210.92 361.31 211.17 351.01C211.43 335.33 216.42 320.24 221.52 305.57C227.44 288.69 236.07 272.98 244.1 257.04C251.99 241.41 257.65 224.55 259.74 207.13C261.64 190.46 258.87 173.06 250.61 158.35C242.06 142.84 227.59 130.79 210.88 124.97C192.12 118.27 171.04 119.37 152.61 126.62C126.6 137.04 105.37 157.7 92.23 182.24C81 203.13 76.99 227.38 78.79 250.89C81.02 280.09 91.21 308.43 106.77 333.15C115.29 346.58 125.6 359.09 138.36 368.7C150.61 378.17 163.36 387.4 177.87 393.09C189.27 397.35 200.69 401.56 212.09 405.81C217.4 418.94 222.79 432.04 228.04 445.2C222.65 444.83 217.47 443.19 212.27 441.86C154.46 425.92 102.71 386.64 74.49 333.39C66.5 318.71 61.29 302.61 58.46 286.16C55.08 266.63 54.69 246.47 58.33 226.95C60.38 215.72 64.35 204.98 68.43 194.36C74.01 179.95 81.11 165.96 91.08 154.05C112.14 127.76 140.65 106.94 173.16 97.42Z" fill="#FF5757"/>
<path d="M339.53 135.36C359.45 128.12 381.47 127.03 402.02 132.14C415.81 135.67 427.21 145.39 435.1 156.97C446.36 173.51 452.11 193.21 454.63 212.89C458.05 241.4 455.27 270.72 446.15 297.97C435.82 328.5 419.21 356.81 398.24 381.25C379.43 403.1 356.31 421.97 329.03 432.05C310.1 439.28 288.69 441.91 269.13 435.58C249.1 429.25 232.93 414.03 222.26 396.28C233.76 397.59 245.44 398.76 256.98 397.08C262.15 396.16 267.23 394.8 272.35 393.6C283.07 400.3 295.36 404 307.72 406.2C321.84 408.65 336.57 406.41 349.57 400.51C365.56 393.35 379.06 381.61 390.51 368.53C402.65 354.44 412.89 338.72 420.97 321.98C432.78 295.57 436.68 265.85 433.48 237.18C431.01 217.78 424.7 197.67 410.32 183.73C402.02 175.42 390.65 170.71 379.06 169.51C365.48 168.08 351.45 170.01 338.97 175.64C339.41 162.21 339.53 148.79 339.53 135.36Z" fill="#FF5757"/>
<path d="M159.12 138.18C173.45 131.35 190.28 131.39 205.32 135.79C217.94 139.46 229.31 147.41 236.87 158.19C246.48 171.68 250.37 188.59 249.89 204.98C249.13 229.78 238.66 254.45 220.27 271.3C213.43 277.8 204.45 282.05 195.02 282.9C180.29 284.34 165.55 278.87 153.9 270.06C143.24 261.98 134.54 250.57 131.79 237.29C129.44 226.21 131.3 214.91 132.44 203.81C124.94 213.14 119.66 224.04 115.43 235.18C107.2 256.94 106.77 281.58 114.46 303.56C121.24 323.52 133.52 341.02 146.93 357.06C152.18 362.89 157.89 368.28 163.31 373.94C157.71 370.23 152.64 365.81 147.36 361.68C120.69 341.22 102.54 310.58 95.51 277.87C89.53 250.1 92.66 220.43 104.67 194.67C115.79 170.48 134.85 149.55 159.12 138.18ZM186.35 182.45C178.3 184.49 170.79 188.98 165.6 195.52C160.61 201.87 157.72 209.93 157.95 218.04C158.21 228.53 163.67 238.61 171.95 244.96C186.06 256.25 208.41 254.89 221.27 242.3C232.85 231 234.71 211.59 226.13 198C218.15 184.84 200.99 179.09 186.35 182.45Z" fill="#FF5757"/>
<path d="M355.35 191.42C365.17 188.37 377.3 194.31 380.41 204.33C383.19 212.48 380.33 222.2 373.46 227.43C367.23 232.23 358.14 233.86 351.02 230.09C340.72 224.77 336.17 210.35 342.31 200.33C345.03 195.48 350.47 193.4 355.35 191.42Z" fill="#FF5757"/>
<path d="M392.8 221.26C397.93 213.33 403.01 205.36 408.18 197.45C419.56 222.85 423.68 251.42 420.19 279.02C416.58 307.01 403.86 333.33 385.95 354.95C377.36 365.19 367.84 374.76 357.01 382.64C370.7 369.19 384.3 354.88 392.14 337.08C408.42 300.87 409.16 257.58 392.8 221.26Z" fill="#FF5757"/>
<path d="M364.88 255.1C370.3 247.87 375.78 240.69 381.26 233.52C388.92 252.95 392.4 274.14 391.31 295C389.01 313.32 383.92 331.56 374.72 347.67C361.84 369.89 340.35 385.76 317.57 396.77C322.08 386.65 324.95 375.88 326.88 365C315.75 370.76 304.96 377.19 293.71 382.74C281 388.99 267.28 393.48 253.1 394.64C230.07 396.76 207.16 391.52 185.33 384.61C209.94 385.02 234.82 384.27 258.86 378.55C278.29 373.92 297.52 365.21 310.92 349.97C320.79 338.55 327.97 324.25 329.03 309.03C330.14 294.06 327.18 278.87 320.86 265.27C326.75 256.39 333.12 247.86 339.52 239.34C348.32 263.03 353.37 288.6 350.47 313.9C349.32 325.36 346.11 336.49 342.09 347.24C345.17 348.45 347.63 345.56 349.76 343.8C357.6 335.67 362.64 325.33 367.03 315.04C371.24 304.29 374.94 292.7 373.2 281.02C371.97 272.02 370.06 262.75 364.88 255.1Z" fill="#FF5757"/>
<path d="M247.27 439.72C254.32 443.22 260.76 448.68 263.82 456.1C267.18 463.56 266.25 472.4 262.61 479.59C260.5 483.98 257.31 487.69 254.32 491.5C254.89 484.33 249.3 478.95 244.36 474.64C240.85 471.61 236.98 469.04 232.99 466.7C237.76 457.71 242.49 448.7 247.27 439.72Z" fill="#FF5757"/>
</svg>
