<svg width="61" height="86" viewBox="0 0 61 86" fill="none" xmlns="http://www.w3.org/2000/svg">
<g clip-path="url(#clip0)">
<path d="M56.9757 3.38431e-09L56.9757 1.4878C57.4714 1.4878 58.0433 1.62768 58.4119 2.63226C58.8313 3.73858 58.844 5.49342 58.4627 7.55345C58.0306 9.88053 57.1155 12.5637 55.8192 15.3231C53.1249 20.9945 48.9435 26.666 43.8726 31.5363L43.1227 14.9543L47.5455 8.82508L51.2693 8.82508C52.6927 8.82508 53.8366 7.6679 53.8366 6.2564L53.8366 2.77214C53.862 2.73399 53.951 2.61955 54.2306 2.45424C55.5904 1.66583 56.4674 1.50052 56.9503 1.50052L56.9757 3.38431e-09ZM56.9757 3.38431e-09C56.0226 3.17419e-09 54.866 0.368771 53.5061 1.15718C52.8834 1.52595 52.3623 2.0346 52.3623 2.74671L52.3623 6.2564C52.3623 6.85406 51.8794 7.33728 51.282 7.33728L46.7957 7.33728L41.623 14.5092L42.5381 34.8044C59.8989 19.7102 63.9912 4.93078e-09 56.9757 3.38431e-09Z" fill="#FBC343"/>
<path d="M3.49636 7.19979e-10L3.49636 1.4878C3.99202 1.4878 4.86895 1.65311 6.21612 2.44152C6.49573 2.60683 6.5974 2.72128 6.61011 2.75943L6.61011 6.2564C6.61011 7.68062 7.76664 8.82508 9.17736 8.82508L12.9011 8.82508L17.3239 14.9543L16.5741 31.5363C11.5031 26.666 7.32182 20.9945 4.62748 15.3231C3.33114 12.5764 2.41608 9.89324 1.99668 7.56617C1.6154 5.49342 1.64082 3.75129 2.04752 2.64498C2.42879 1.6404 2.98799 1.50052 3.48365 1.50052L3.48365 7.17177e-10L3.49636 7.19979e-10ZM3.49636 7.19979e-10C-3.53181 -8.29293e-10 0.560544 19.7102 17.934 34.8044L18.849 14.5092L13.6764 7.33728L9.19007 7.33728C8.59274 7.33728 8.10979 6.85406 8.10979 6.2564L8.10979 2.74671C8.10979 2.02188 7.58872 1.51323 6.96597 1.15718C5.60608 0.368771 4.44955 9.30097e-10 3.49636 7.19979e-10Z" fill="#FBC343"/>
<path d="M44.8639 70.8043L15.6074 70.8043L15.6074 85.9875L44.8639 85.9875L44.8639 70.8043Z" fill="#6F3428"/>
<path d="M40.3776 70.8042L20.0811 70.8042L20.0811 65.8448C20.0811 63.6322 21.873 61.8392 24.0844 61.8392L36.3742 61.8392C38.5856 61.8392 40.3776 63.6322 40.3776 65.8448L40.3776 70.8042Z" fill="#FBC343"/>
<path d="M36.5521 61.8388L23.9192 61.8388L23.9192 58.7487C23.9192 57.3754 25.0376 56.2563 26.4102 56.2563L34.0611 56.2563C35.4337 56.2563 36.5521 57.3754 36.5521 58.7487L36.5521 61.8388Z" fill="#FBC343"/>
<path d="M33.7562 54.705L34.1502 56.2691L26.3213 56.2691L26.7153 54.705C27.2363 52.6322 27.2363 50.5468 26.7153 48.474L26.3213 46.9099L34.1502 46.9099L33.7562 48.474C33.5782 49.1607 33.4639 49.8474 33.413 50.5213C33.2859 51.9201 33.4003 53.3189 33.7562 54.705Z" fill="#FBC343"/>
<path opacity="0.3" d="M34.1502 46.9099L33.7562 48.474C33.5782 49.1607 33.4639 49.8474 33.413 50.5213C32.9809 47.6602 26.3213 46.9099 26.3213 46.9099L34.1502 46.9099V46.9099Z" fill="#6F3428"/>
<path d="M36.5521 41.3278L36.5521 44.4178C36.5521 44.6721 36.514 44.9137 36.4504 45.1554C36.1327 46.1727 35.1922 46.9229 34.0611 46.9229L26.4102 46.9229C25.0376 46.9229 23.9192 45.8039 23.9192 44.4305L23.9192 41.3278L36.5521 41.3278Z" fill="#FBC343"/>
<path opacity="0.3" d="M36.5521 41.3278L36.5521 44.4178C36.5521 44.6721 36.514 44.9137 36.4504 45.1554C33.0698 42.0526 24.5038 41.9636 23.9192 41.9636L23.9192 41.3278L36.5521 41.3278Z" fill="#6F3428"/>
<path d="M49.8586 4.06959L46.2365 19.8886L42.2204 37.4497C41.623 40.082 39.2846 41.9386 36.5902 41.9386L23.8937 41.9386C21.2121 41.9386 18.8863 40.082 18.2636 37.4752C18.2636 37.4625 18.2636 37.4625 18.2636 37.4497L10.6 4.06959C10.4474 3.39563 10.8796 2.70895 11.5658 2.56907C24.0081 0.114834 36.4504 0.114834 48.8927 2.56907C49.579 2.70895 50.0111 3.38291 49.8586 4.06959Z" fill="#FBC343"/>
<path opacity="0.6" d="M20.8875 17.9123C21.7235 17.8103 22.1761 15.8797 21.8984 13.6002C21.6207 11.3207 20.7178 9.55543 19.8817 9.6574C19.0457 9.75937 18.5931 11.69 18.8708 13.9695C19.1485 16.249 20.0514 18.0143 20.8875 17.9123Z" fill="white"/>
<path opacity="0.1" d="M46.2366 19.8879L42.2205 37.4491C41.6231 40.0813 39.2846 41.9379 36.5903 41.9379L23.8938 41.9379C21.2122 41.9379 18.8864 40.0813 18.2637 37.4745C32.2056 36.5971 41.496 27.7466 46.2366 19.8879Z" fill="#6F3428"/>
<g opacity="0.3">
<path opacity="0.3" d="M26.3086 56.2694C26.9568 56.1041 27.6049 56.0151 28.2531 55.9388C28.9013 55.8625 29.5621 55.8371 30.223 55.8243C31.5321 55.8243 32.8665 55.9134 34.1375 56.2567C33.4766 56.2694 32.8284 56.2694 32.1802 56.2821L30.223 56.2948C28.9267 56.3076 27.6303 56.333 26.3086 56.2694Z" fill="#6F3428"/>
</g>
<g opacity="0.3">
<path opacity="0.3" d="M23.9065 61.8391C26.0035 61.5594 28.1132 61.4449 30.223 61.4068C31.2778 61.3941 32.3327 61.4068 33.3875 61.4704C34.4424 61.5212 35.4973 61.623 36.5394 61.8391C35.4846 61.801 34.4297 61.8264 33.3748 61.8391L30.223 61.89C28.1259 61.9154 26.0289 61.9282 23.9065 61.8391Z" fill="#6F3428"/>
</g>
</g>
<defs>
<clipPath id="clip0">
<rect width="60" height="86" fill="white" transform="translate(0.229248)"/>
</clipPath>
</defs>
</svg>
