<svg width="69" height="32" viewBox="0 0 69 32" fill="none" xmlns="http://www.w3.org/2000/svg">
<g clip-path="url(#clip0)">
<path d="M7.64967 11.2362L12.8514 16.6213L20.1441 13.8252L20.3991 15.6375L17.2882 22.2135L20.1951 27.0808L19.9401 28.5824L12.9024 27.3397L8.72062 31.9999L7.75166 31.275L6.8847 25.3203L0.305987 21.851L-2.04315e-09 20.5048L6.62971 18.6925L7.64967 11.2362Z" fill="#FFC444"/>
<g opacity="0.5">
<path opacity="0.3" d="M7.64967 11.2362L12.8514 16.6213L20.1441 13.8252L20.3991 15.6375L17.2882 22.2135L20.1951 27.0808L19.9401 28.5824L12.9024 27.3397L8.72062 31.9999L7.75166 31.275L6.8847 25.3203L0.305987 21.851L-2.04315e-09 20.5048L6.62971 18.6925L7.64967 11.2362Z" fill="black"/>
</g>
<path d="M7.64967 9.73473L12.8514 15.1198L20.1441 13.8253L16.7273 20.4532L20.1951 27.081L12.9024 25.8383L7.75166 31.2752L6.62971 23.8189L-2.37416e-09 20.505L6.62971 17.191L7.64967 9.73473Z" fill="#FFC444"/>
<path d="M61.3503 11.2362L56.1485 16.6213L48.8558 13.8252L48.6009 15.6375L51.7627 22.2135L48.8558 27.0808L49.0598 28.5824L56.1485 27.3397L60.2793 31.9999L61.2993 31.275L62.1153 25.3203L68.694 21.851L69 20.5048L62.3703 18.6925L61.3503 11.2362Z" fill="#FFC444"/>
<g opacity="0.5">
<path opacity="0.3" d="M61.3503 11.2362L56.1485 16.6213L48.8558 13.8252L48.6009 15.6375L51.7627 22.2135L48.8558 27.0808L49.0598 28.5824L56.1485 27.3397L60.2793 31.9999L61.2993 31.275L62.1153 25.3203L68.694 21.851L69 20.5048L62.3703 18.6925L61.3503 11.2362Z" fill="black"/>
</g>
<path d="M61.3503 9.73473L56.1485 15.1198L48.8559 13.8253L52.2727 20.4532L48.8559 27.081L56.1485 25.8383L61.2993 31.2752L62.3703 23.8189L69 20.505L62.3703 17.191L61.3503 9.73473Z" fill="#FFC444"/>
<path d="M34.3215 1.81229L38.6563 10.356L48.6009 9.7864L48.2439 12.1165L41.9202 18.9514L43.6541 26.0453L42.7871 27.7023L34.6275 23.5081L27.7938 27.5987L26.9268 26.3042L28.0488 18.7443L21.3681 11.9612L21.5211 10.2006L30.2927 10.5113L34.3215 1.81229Z" fill="#FFC444"/>
<g opacity="0.5">
<path opacity="0.3" d="M34.3215 1.81229L38.6563 10.356L48.6009 9.7864L48.2439 12.1165L41.9202 18.9514L43.6541 26.0453L42.7871 27.7023L34.6275 23.5081L27.7938 27.5987L26.9268 26.3042L28.0488 18.7443L21.3681 11.9612L21.5211 10.2006L30.2927 10.5113L34.3215 1.81229Z" fill="black"/>
</g>
<path d="M34.8824 2.94536e-09L39.2173 8.54369L48.6008 9.78641L41.9201 16.5696L43.6541 26.0453L35.1884 21.6958L26.9268 26.3042L28.3547 16.7767L21.521 10.2006L30.8536 8.64725L34.8824 2.94536e-09Z" fill="#FFC444"/>
</g>
<defs>
<clipPath id="clip0">
<rect width="69" height="32" fill="white"/>
</clipPath>
</defs>
</svg>
